<?xml version="1.0" encoding="utf-8"?>
<!-- Generator: Adobe Illustrator 16.0.0, SVG Export Plug-In . SVG Version: 6.00 Build 0)  -->
<!DOCTYPE svg PUBLIC "-//W3C//DTD SVG 1.1//EN" "http://www.w3.org/Graphics/SVG/1.1/DTD/svg11.dtd">
<svg version="1.1" id="Слой_1" xmlns="http://www.w3.org/2000/svg" xmlns:xlink="http://www.w3.org/1999/xlink" x="0px" y="0px"
	 width="342.049px" height="50.478px" viewBox="0 0 342.049 50.478" enable-background="new 0 0 342.049 50.478"
	 xml:space="preserve">
<g>
	<g>
		<path fill-rule="evenodd" clip-rule="evenodd" fill="#BD2F32" d="M307.469,13.652c4.877,0.932,10.014,1.617,14.973,2.961
			c3.456,0.936,5.589-0.149,7.786-2.591c2.102-2.336,4.515-4.42,6.965-6.398c1.087-0.877,2.579-1.84,4.054-0.466
			c1.502,1.398,0.596,2.875-0.278,4.019c-1.608,2.104-3.197,4.374-5.273,5.94c-4.027,3.037-4.815,6.562-3.4,11.25
			c1.195,3.963,1.644,8.146,2.545,12.205c0.458,2.066,0.086,3.982-1.916,4.512c-1.961,0.52-1.927-1.852-2.532-3.01
			c-1.693-3.236-3.212-6.568-4.688-9.912c-0.981-2.221-1.719-3.367-4.076-0.98c-2.813,2.846-5.39,5.354-2.977,9.738
			c0.961,1.746,0.145,3.432-1.592,4.119c-1.858,0.736-2.104-1.293-2.569-2.303c-1.814-3.932-4.453-6.871-8.517-8.607
			c-1.061-0.455-3.458-0.672-2.329-2.92c0.871-1.732,2.447-1.754,4.308-1.334c1.935,0.438,3.757,2.061,6.053,0.34
			c5.893-4.412,5.876-5.585-0.62-8.706c-2.396-1.15-4.86-2.184-7.17-3.488c-1.081-0.61-3.482-0.441-2.646-2.67
			C304.107,13.911,305.559,13.148,307.469,13.652z"/>
	</g>
	<g>
		<path fill-rule="evenodd" clip-rule="evenodd" fill="#BD2D30" d="M60.776,39.055c2-1.823,3.53-3.678,4.333-4.656
			c1.354-1.648-0.64-2.848-2.175-4.318c-8.438-8.084-6.645-17.159,4.198-21.867c7.893-3.427,15.662-2.832,22.947,1.507
			c8.835,5.263,8.882,15.418,0.33,21.156c-0.276,0.185-0.548,0.379-0.835,0.545c-3.986,2.312-12.204,4.479-19.235,6.123
			C66.147,38.523,60.915,39.477,60.776,39.055z"/>
		<path fill-rule="evenodd" clip-rule="evenodd" fill="#BD2F32" d="M96.198,41.872c-1.5,0.122-4.905,0.231-6.407,0.013
			c-4.275-0.623-8.619-1.133-12.82-2.636c9.487-2.015,18.76-4.019,22.644-14.384c1.27-4.993,0.256-9.899,0.854-9.452
			c4.332,3.245,9.308,15.283,2.043,21.537c-1.664,1.433-2.26,1.82-1.581,3.079c0.186,0.344,2.516,4.557,2.163,5.636"/>
	</g>
	<g>
		<path fill-rule="evenodd" clip-rule="evenodd" fill="#BD2E31" d="M205.14,47.105c-4.82,0-9.642,0.01-14.463-0.004
			c-1.985-0.004-4.174,0.262-5.291-1.895c-1.114-2.152,0.453-3.809,1.479-5.451c3.689-5.918,7.473-11.777,11.179-17.687
			c3.055-4.871,2.721-10.063-0.769-14.777c-1.16-1.568-0.398-2.625,1.317-2.668c4.483-0.109,8.975-0.123,13.455,0.031
			c1.646,0.057,2.489,1.137,1.201,2.688c-3.546,4.268-4.067,9.676-1.146,14.346c3.786,6.05,7.728,12.005,11.489,18.072
			c3.188,5.143,2.015,7.254-3.988,7.334C214.783,47.156,209.961,47.105,205.14,47.105z"/>
		<path fill-rule="evenodd" clip-rule="evenodd" fill="#FDFBFA" d="M214.87,32.75c-6.85,0-12.645,0-18.445,0
			c1.048-2.131,3.805-6.917,3.805-6.917s4.175-7.59,3.199-14.18c-0.209-1.414-0.766-3.709,1.938-3.695
			c2.542,0.012,1.75,2.256,1.533,3.361C205.247,19.739,210.619,25.667,214.87,32.75z"/>
	</g>
	<g>
		<path fill-rule="evenodd" clip-rule="evenodd" fill="#BD2D30" d="M23.22,6.257c5.823-0.001,11.646,0.069,17.468-0.025
			c3.987-0.064,5.78,1.748,5.754,5.716c-0.063,9.315-0.052,18.633-0.011,27.949c0.017,3.706-1.679,5.546-5.424,5.54
			c-11.812-0.021-23.624-0.016-35.436-0.003C1.536,45.438-0.022,43.277,0,39.445c0.055-9.149,0.05-18.3,0.006-27.45
			c-0.019-3.926,1.746-5.818,5.746-5.76C11.574,6.32,17.397,6.257,23.22,6.257z"/>
		<g>
			<rect x="4.054" y="11.833" fill="#F9F9FA" width="10" height="7.167"/>
			<rect x="17.888" y="11.833" fill="#F9F9FA" width="10" height="7.167"/>
			<rect x="32.388" y="11.833" fill="#F9F9FA" width="10" height="7.167"/>
			<rect x="4.054" y="22.333" fill="#F9F9FA" width="10" height="7.167"/>
			<rect x="17.888" y="22.333" fill="#F9F9FA" width="10" height="7.167"/>
			<rect x="32.388" y="22.333" fill="#F9F9FA" width="10" height="7.167"/>
			<rect x="4.054" y="32.667" fill="#F9F9FA" width="10" height="7.167"/>
			<rect x="17.888" y="32.667" fill="#F9F9FA" width="10" height="7.167"/>
			<rect x="32.388" y="32.667" fill="#F9F9FA" width="10" height="7.167"/>
		</g>
	</g>
	<g>
		<g>
			<path fill-rule="evenodd" clip-rule="evenodd" fill="#BD2E31" d="M152.069,26.338c0.498,5.291-5.032,2.682-5.438,5.539
				c-0.334,2.355,3.801,4.625,0.083,7.285c-1.615,1.156-2.748,2.256-4.642,0.498c-2.162-2.006-3.68-1.209-4.016,1.541
				c-0.312,2.549-1.615,3.113-3.997,3.119c-2.521,0.008-3.563-0.773-3.764-3.348c-0.197-2.518-1.815-3.162-3.757-1.482
				c-1.74,1.504-2.976,1.51-4.58-0.221c-1.587-1.715-2.998-3.041-0.816-5.381c1.435-1.539,1.033-3.301-1.215-3.586
				c-2.635-0.336-3.63-1.314-3.626-4.102c0.003-2.638,1.074-3.428,3.389-3.803c2.623-0.426,2.921-2.102,1.227-3.869
				c-1.729-1.804-1.283-3.063,0.325-4.565c1.533-1.433,2.804-2.885,5.023-0.946c2.165,1.891,3.753,1.194,4.039-1.596
				c0.241-2.351,1.336-3.042,3.574-3.063c2.3-0.021,3.742,0.345,4.065,3.057c0.307,2.565,1.821,3.616,4.093,1.6
				c1.907-1.692,3.278-0.835,4.659,0.657c1.272,1.374,2.569,2.598,0.818,4.64c-2.138,2.492-0.979,3.931,1.873,4.356
				C151.584,22.996,152.156,23.97,152.069,26.338z"/>
			<circle fill-rule="evenodd" clip-rule="evenodd" fill="#FFFFFF" cx="134.185" cy="26.338" r="7.424"/>
		</g>
		<g>
			<path fill-rule="evenodd" clip-rule="evenodd" fill="#BD3033" d="M165.66,4.889c-0.78,2.141-0.423,3.408,1.929,3.651
				c1.561,0.161,2.183,1.168,2.236,2.755c0.06,1.771-0.984,2.335-2.39,2.578c-2.329,0.403-2.597,1.783-1.718,3.615
				c0.793,1.652-0.04,2.339-1.359,3.101c-1.333,0.769-2.18,0.364-2.925-0.701c-1.631-2.332-3.109-2.002-4.616,0.145
				c-0.88,1.253-1.977,0.813-3.07,0.236c-1.202-0.633-1.812-1.565-1.178-2.838c1.28-2.569,0.293-3.771-2.299-3.991
				c-1.531-0.13-1.858-0.972-1.888-2.318c-0.036-1.574,0.458-2.579,2.144-2.717c2.406-0.195,3.324-1.24,2.15-3.603
				c-0.584-1.176-0.476-2.164,0.834-2.925c1.3-0.756,2.463-1.098,3.487,0.294c1.426,1.938,2.853,2.166,4.293,0.069
				c0.999-1.452,2.121-1.189,3.434-0.478C166.263,2.598,166.3,3.716,165.66,4.889z"/>
			<circle fill-rule="evenodd" clip-rule="evenodd" fill="#FFFFFF" cx="159.104" cy="11.087" r="3.714"/>
		</g>
		<g>
			<path fill-rule="evenodd" clip-rule="evenodd" fill="#BD3033" d="M166.235,34.385c-0.833,2.396-0.086,3.553,2.077,3.754
				c1.401,0.131,2.063,0.82,2.045,2.252s-0.16,2.746-1.972,2.873c-2.657,0.188-3.034,1.699-2.108,3.762
				c0.627,1.398,0.157,2.152-0.996,2.846c-1.295,0.779-2.445,0.977-3.453-0.439c-1.434-2.016-2.85-2.008-4.278,0.047
				c-1.005,1.447-2.166,1.059-3.465,0.311c-1.307-0.754-1.446-1.723-0.868-2.918c0.942-1.949,0.588-3.303-1.734-3.494
				c-1.88-0.154-2.568-0.973-2.57-2.852c-0.002-1.779,0.872-2.211,2.391-2.436c1.966-0.289,3.09-1.246,1.952-3.432
				c-0.77-1.477-0.203-2.477,1.173-3.264c1.446-0.826,2.48-0.469,3.403,0.809c1.4,1.938,2.812,1.441,3.993-0.188
				c1.006-1.389,2.049-1.373,3.373-0.555C166.538,32.291,167.198,32.96,166.235,34.385z"/>
			<circle fill-rule="evenodd" clip-rule="evenodd" fill="#FFFFFF" cx="159.636" cy="40.688" r="3.714"/>
		</g>
	</g>
	<g>
		<path fill-rule="evenodd" clip-rule="evenodd" fill="#BD2D30" d="M264.318,4.551c6.822-0.001,13.646,0.096,20.467-0.036
			c4.25-0.083,6.02,1.784,5.977,5.996c-0.104,10.315-0.088,20.633-0.01,30.95c0.029,4.006-1.77,5.713-5.746,5.691
			c-13.977-0.068-27.953-0.061-41.932-0.002c-3.961,0.016-5.789-1.742-5.768-5.725c0.061-10.482,0.029-20.964,0.02-31.448
			c-0.004-3.712,1.789-5.471,5.527-5.441C250.007,4.593,257.164,4.553,264.318,4.551z"/>
		<path fill-rule="evenodd" clip-rule="evenodd" fill="#FFFFFF" d="M263.882,43.572c-6.482,0-12.967-0.094-19.445,0.045
			c-2.605,0.057-3.986-0.449-3.945-3.475c0.131-9.637,0.096-19.279,0.018-28.918c-0.021-2.501,0.779-3.546,3.441-3.526
			c13.297,0.1,26.594,0.101,39.889,0.002c2.695-0.021,3.369,1.054,3.342,3.549c-0.104,9.639-0.16,19.283,0.025,28.919
			c0.061,3.117-1.309,3.5-3.879,3.447C276.849,43.484,270.365,43.572,263.882,43.572z"/>
		<path fill-rule="evenodd" clip-rule="evenodd" fill="#BD3134" d="M283.732,26.143c0,3.313-0.137,6.633,0.043,9.936
			c0.152,2.814-0.486,4.139-3.746,4.168c-3.496,0.029-3.607-1.723-3.568-4.33c0.104-6.955,0.176-13.917-0.027-20.869
			c-0.086-2.988,1.107-3.524,3.768-3.587c2.924-0.069,3.715,1.026,3.576,3.752C283.589,18.846,283.73,22.498,283.732,26.143z"/>
		<path fill-rule="evenodd" clip-rule="evenodd" fill="#BD2D30" d="M262.367,36.17c0.227,2.867-0.449,4.152-3.727,4.061
			c-2.934-0.082-3.531-1.123-3.533-3.811c-0.006-5.902-0.008-11.678-0.002-17.392c0.004-2.681,0.594-3.81,3.533-3.811
			c4.469-0.002,3.732,4.061,3.732,4.061"/>
		<path fill-rule="evenodd" clip-rule="evenodd" fill="#BF3235" d="M273.158,31.285c-0.002,1.664-0.109,3.338,0.023,4.992
			c0.207,2.576-0.375,3.924-3.453,3.965c-3.189,0.041-4.059-1.131-3.863-4.086c0.109-1.645,0.113-1.645,0.117-5.182
			c0,0-0.055-2.869-0.086-4.301c-0.053-2.466-0.18-4.417,3.451-4.483c3.777-0.068,4.02,1.811,3.828,4.602
			C273.074,28.285,273.158,29.787,273.158,31.285z"/>
		<path fill-rule="evenodd" clip-rule="evenodd" fill="#BD3134" d="M249.888,38.27c0,1.105-0.896,2-2,2h-3.125c-1.105,0-2-0.895-2-2
			v-7.25c0-1.104,0.895-2,2-2h3.125c1.104,0,2,0.896,2,2V38.27z"/>
	</g>
</g>
</svg>
