<?xml version="1.0" encoding="utf-8"?>
<!-- Generator: Adobe Illustrator 16.0.0, SVG Export Plug-In . SVG Version: 6.00 Build 0)  -->
<!DOCTYPE svg PUBLIC "-//W3C//DTD SVG 1.1//EN" "http://www.w3.org/Graphics/SVG/1.1/DTD/svg11.dtd">
<svg version="1.1" id="Слой_1" xmlns="http://www.w3.org/2000/svg" xmlns:xlink="http://www.w3.org/1999/xlink" x="0px" y="0px"
	 width="342.049px" height="50.478px" viewBox="0 0 342.049 50.478" enable-background="new 0 0 342.049 50.478"
	 xml:space="preserve">
<g>
	<g>
		<path fill-rule="evenodd" clip-rule="evenodd" fill="#BD2F32" d="M306.469,12.463c4.877,0.932,10.014,1.617,14.973,2.961
			c3.456,0.936,5.589-0.149,7.786-2.591c2.102-2.336,4.515-4.42,6.965-6.398c1.087-0.877,2.579-1.84,4.054-0.466
			c1.502,1.398,0.596,2.875-0.278,4.019c-1.608,2.104-3.197,4.374-5.273,5.94c-4.027,3.037-4.815,6.562-3.4,11.251
			c1.195,3.963,1.644,8.146,2.545,12.205c0.458,2.066,0.086,3.982-1.916,4.512c-1.961,0.52-1.927-1.852-2.532-3.01
			c-1.693-3.236-3.212-6.568-4.688-9.912c-0.981-2.221-1.719-3.367-4.076-0.98c-2.813,2.846-5.39,5.354-2.977,9.738
			c0.961,1.746,0.145,3.432-1.592,4.119c-1.858,0.736-2.104-1.293-2.569-2.303c-1.814-3.932-4.453-6.871-8.517-8.607
			c-1.061-0.455-3.458-0.672-2.329-2.92c0.871-1.732,2.447-1.754,4.308-1.334c1.935,0.438,3.757,2.061,6.053,0.34
			c5.893-4.413,5.876-5.586-0.62-8.707c-2.396-1.15-4.86-2.184-7.17-3.488c-1.081-0.61-3.482-0.441-2.646-2.67
			C303.107,12.722,304.559,11.959,306.469,12.463z"/>
	</g>
	<g>
		<path fill-rule="evenodd" clip-rule="evenodd" fill="#BD2D30" d="M60.776,37.867c2-1.824,3.53-3.678,4.333-4.656
			c1.354-1.648-0.64-2.848-2.175-4.318c-8.438-8.085-6.645-17.16,4.198-21.868c7.893-3.427,15.662-2.832,22.947,1.507
			c8.835,5.263,8.882,15.418,0.33,21.156c-0.276,0.186-0.548,0.379-0.835,0.545c-3.986,2.313-12.204,4.479-19.235,6.123
			C66.147,37.336,60.915,38.289,60.776,37.867z"/>
		<path fill-rule="evenodd" clip-rule="evenodd" fill="#BD2F32" d="M96.198,40.684c-1.5,0.123-4.905,0.232-6.407,0.014
			c-4.275-0.623-8.619-1.133-12.82-2.637c9.487-2.014,18.76-4.018,22.644-14.384c1.27-4.993,0.256-9.899,0.854-9.452
			c4.332,3.245,9.308,15.283,2.043,21.537c-1.664,1.434-2.26,1.82-1.581,3.08c0.186,0.344,2.516,4.557,2.163,5.635"/>
	</g>
	<path fill-rule="evenodd" clip-rule="evenodd" fill="#BD2E30" d="M223.591,38.572c-3.762-6.066-7.703-12.021-11.489-18.073
		c-2.921-4.67-2.399-10.078,1.146-14.346c1.288-1.551,0.445-2.631-1.201-2.688c-4.48-0.154-8.972-0.141-13.455-0.031
		c-1.716,0.043-2.478,1.1-1.317,2.668c3.489,4.715,3.823,9.906,0.769,14.777c-3.706,5.911-7.489,11.77-11.179,17.688
		c-1.025,1.643-2.593,3.299-1.479,5.451c1.117,2.156,3.306,1.891,5.291,1.895c4.821,0.014,9.643,0.004,14.463,0.004
		c4.821,0,9.643,0.051,14.463-0.012C225.606,45.826,226.78,43.715,223.591,38.572z M196.424,31.563
		c1.048-2.131,3.805-6.918,3.805-6.918s4.175-7.59,3.199-14.18c-0.209-1.414-0.766-3.709,1.938-3.695
		c2.542,0.012,1.75,2.256,1.533,3.361c-1.652,8.42,3.72,14.348,7.971,21.432C208.02,31.563,202.225,31.563,196.424,31.563z"/>
	<path fill="#BD2E30" d="M47.442,10.759c0.026-3.968-1.767-5.78-5.754-5.716C35.867,5.138,30.043,5.067,24.22,5.068
		c-5.823,0-11.646,0.063-17.468-0.021c-4-0.059-5.765,1.834-5.746,5.76C1.051,19.957,1.056,29.107,1,38.258
		c-0.023,3.832,1.536,5.992,5.571,5.988c11.812-0.014,23.624-0.018,35.436,0.002c3.746,0.006,5.441-1.834,5.424-5.539
		C47.39,29.393,47.378,20.074,47.442,10.759z M15.054,38.646h-10v-7.168h10V38.646z M15.054,28.313h-10v-7.167h10V28.313z
		 M15.054,17.812h-10v-7.167h10V17.812z M28.888,38.646h-10v-7.168h10V38.646z M28.888,28.313h-10v-7.167h10V28.313z M28.888,17.812
		h-10v-7.167h10V17.812z M43.388,38.646h-10v-7.168h10V38.646z M43.388,28.313h-10v-7.167h10V28.313z M43.388,17.812h-10v-7.167h10
		V17.812z"/>
	<g>
		<path fill-rule="evenodd" clip-rule="evenodd" fill="#BD2E30" d="M152.069,26.338c0.087-2.369-0.484-3.343-2.684-3.671
			c-2.851-0.426-4.01-1.864-1.873-4.356c1.751-2.042,0.454-3.266-0.818-4.64c-1.381-1.492-2.752-2.35-4.659-0.657
			c-2.272,2.017-3.787,0.966-4.093-1.6c-0.324-2.712-1.766-3.078-4.065-3.057c-2.237,0.021-3.333,0.713-3.574,3.063
			c-0.286,2.79-1.874,3.486-4.039,1.596c-2.219-1.938-3.491-0.486-5.023,0.946c-1.607,1.503-2.054,2.762-0.325,4.565
			c1.694,1.768,1.396,3.443-1.227,3.869c-2.315,0.375-3.386,1.165-3.389,3.804c-0.004,2.787,0.991,3.766,3.626,4.102
			c2.248,0.285,2.649,2.047,1.215,3.586c-2.182,2.34-0.771,3.666,0.816,5.381c1.604,1.73,2.84,1.725,4.58,0.221
			c1.942-1.68,3.56-1.035,3.757,1.482c0.201,2.574,1.243,3.355,3.764,3.348c2.382-0.006,3.686-0.57,3.997-3.119
			c0.336-2.75,1.854-3.547,4.016-1.541c1.895,1.758,3.027,0.658,4.642-0.498c3.718-2.66-0.418-4.93-0.083-7.285
			C147.037,29.02,152.567,31.629,152.069,26.338z M134.185,33.762c-4.101,0-7.424-3.322-7.424-7.424
			c0-4.101,3.324-7.424,7.424-7.424c4.1,0,7.424,3.324,7.424,7.424C141.609,30.439,138.285,33.762,134.185,33.762z"/>
		<path fill-rule="evenodd" clip-rule="evenodd" fill="#BD2E30" d="M167.589,8.54c-2.352-0.243-2.709-1.511-1.929-3.651
			c0.64-1.173,0.603-2.291-0.936-3.126c-1.313-0.712-2.436-0.975-3.434,0.478c-1.44,2.097-2.868,1.869-4.293-0.069
			c-1.023-1.392-2.187-1.05-3.487-0.294c-1.311,0.761-1.418,1.749-0.834,2.925c1.174,2.362,0.256,3.407-2.15,3.603
			c-1.686,0.138-2.18,1.143-2.144,2.717c0.03,1.347,0.357,2.188,1.888,2.318c2.592,0.221,3.58,1.422,2.299,3.991
			c-0.634,1.272-0.024,2.205,1.178,2.838c1.094,0.576,2.19,1.017,3.07-0.236c1.507-2.146,2.985-2.477,4.616-0.145
			c0.746,1.065,1.593,1.47,2.925,0.701c1.32-0.762,2.153-1.448,1.359-3.101c-0.879-1.832-0.611-3.212,1.718-3.615
			c1.406-0.243,2.45-0.808,2.39-2.578C169.772,9.708,169.15,8.701,167.589,8.54z M159.104,14.8c-2.051,0-3.714-1.663-3.714-3.714
			c0-2.051,1.663-3.713,3.714-3.713c2.051,0,3.713,1.663,3.713,3.713C162.817,13.138,161.155,14.8,159.104,14.8z"/>
		<path fill-rule="evenodd" clip-rule="evenodd" fill="#BD2E30" d="M168.313,38.139c-2.164-0.201-2.91-1.357-2.077-3.754
			c0.962-1.426,0.303-2.094-1.037-2.924c-1.324-0.818-2.366-0.834-3.373,0.555c-1.181,1.629-2.593,2.125-3.993,0.188
			c-0.923-1.277-1.957-1.635-3.403-0.809c-1.376,0.787-1.942,1.787-1.173,3.264c1.138,2.186,0.014,3.143-1.952,3.432
			c-1.519,0.225-2.394,0.656-2.391,2.436c0.002,1.879,0.69,2.697,2.57,2.852c2.322,0.191,2.676,1.545,1.734,3.494
			c-0.579,1.195-0.439,2.164,0.868,2.918c1.299,0.748,2.459,1.137,3.465-0.311c1.429-2.055,2.844-2.063,4.278-0.047
			c1.008,1.416,2.158,1.219,3.453,0.439c1.153-0.693,1.623-1.447,0.996-2.846c-0.926-2.063-0.549-3.574,2.108-3.762
			c1.812-0.127,1.954-1.441,1.972-2.873S169.714,38.27,168.313,38.139z M159.636,44.4c-2.051,0-3.714-1.662-3.714-3.713
			s1.663-3.713,3.714-3.713c2.051,0,3.713,1.662,3.713,3.713S161.687,44.4,159.636,44.4z"/>
	</g>
	<g>
		<path fill-rule="evenodd" clip-rule="evenodd" fill="#BD2E30" d="M290.761,9.323c0.043-4.212-1.727-6.079-5.977-5.996
			c-6.82,0.132-13.645,0.035-20.467,0.036c-7.154,0.002-14.311,0.042-21.465-0.015c-3.738-0.029-5.531,1.729-5.527,5.441
			c0.01,10.483,0.041,20.966-0.02,31.449c-0.021,3.982,1.807,5.74,5.768,5.725c13.979-0.059,27.955-0.066,41.932,0.002
			c3.977,0.021,5.775-1.686,5.746-5.691C290.673,29.957,290.658,19.638,290.761,9.323z M283.328,42.428
			c-6.479-0.131-12.963-0.043-19.445-0.043s-12.967-0.094-19.445,0.045c-2.605,0.057-3.986-0.449-3.945-3.475
			c0.131-9.637,0.096-19.28,0.018-28.919c-0.021-2.501,0.779-3.546,3.441-3.526c13.297,0.1,26.594,0.101,39.889,0.002
			c2.695-0.021,3.369,1.054,3.342,3.549c-0.104,9.639-0.16,19.284,0.025,28.92C287.267,42.098,285.898,42.48,283.328,42.428z"/>
		<path fill-rule="evenodd" clip-rule="evenodd" fill="#BD3134" d="M283.732,24.955c0,3.313-0.137,6.633,0.043,9.936
			c0.152,2.814-0.486,4.139-3.746,4.168c-3.496,0.029-3.607-1.723-3.568-4.33c0.104-6.955,0.176-13.918-0.027-20.87
			c-0.086-2.988,1.107-3.524,3.768-3.587c2.924-0.069,3.715,1.026,3.576,3.752C283.589,17.658,283.73,21.309,283.732,24.955z"/>
		<path fill-rule="evenodd" clip-rule="evenodd" fill="#BD2D30" d="M262.367,34.982c0.227,2.867-0.449,4.152-3.727,4.061
			c-2.934-0.082-3.531-1.123-3.533-3.811c-0.006-5.902-0.008-11.679-0.002-17.393c0.004-2.681,0.594-3.81,3.533-3.811
			c4.469-0.002,3.732,4.061,3.732,4.061"/>
		<path fill-rule="evenodd" clip-rule="evenodd" fill="#BF3235" d="M273.158,30.098c-0.002,1.664-0.109,3.338,0.023,4.992
			c0.207,2.576-0.375,3.924-3.453,3.965c-3.189,0.041-4.059-1.131-3.863-4.086c0.109-1.645,0.113-1.645,0.117-5.182
			c0,0-0.055-2.869-0.086-4.301c-0.053-2.467-0.18-4.418,3.451-4.483c3.777-0.068,4.02,1.811,3.828,4.603
			C273.074,27.098,273.158,28.6,273.158,30.098z"/>
		<path fill-rule="evenodd" clip-rule="evenodd" fill="#BD3134" d="M249.888,37.082c0,1.105-0.896,2-2,2h-3.125
			c-1.105,0-2-0.895-2-2v-7.25c0-1.104,0.895-2,2-2h3.125c1.104,0,2,0.896,2,2V37.082z"/>
	</g>
</g>
</svg>
