<?xml version="1.0" encoding="utf-8"?>
<!-- Generator: Adobe Illustrator 16.0.0, SVG Export Plug-In . SVG Version: 6.00 Build 0)  -->
<!DOCTYPE svg PUBLIC "-//W3C//DTD SVG 1.1//EN" "http://www.w3.org/Graphics/SVG/1.1/DTD/svg11.dtd">
<svg version="1.1" id="Слой_1" xmlns="http://www.w3.org/2000/svg" xmlns:xlink="http://www.w3.org/1999/xlink" x="0px" y="0px"
	 width="148.333px" height="27.242px" viewBox="0 0 148.333 27.242" enable-background="new 0 0 148.333 27.242"
	 xml:space="preserve">
<g>
	<path fill-rule="evenodd" clip-rule="evenodd" fill="#FFFFFF" d="M15.859,0.412C9.9-0.73,2.657,4.195,1.316,10.184
		c-0.185,0.827-0.258,2.965-0.258,2.965s1.433,0.272,2.231,0.401c6.011,0.966,10.241,4.757,11.112,10.763
		c0.208,1.43,0.558,2.514,0.558,2.514l2.48-0.44c5.226-1.073,9.774-7.065,9.826-12.54C27.698,7.398,23.512,1.878,15.859,0.412z
		 M23.916,16.375c-0.831,2.607-3.26,4.869-4.784,5.734c-0.779,0.442-1.953,1.109-1.953,1.109s-0.426-1.782-0.906-2.688
		c-2.244-4.231-4.578-7.444-9.156-8.875c-1.103-0.344-2.406-0.688-2.406-0.688s0.684-1.915,1.586-2.99
		c6.419-7.644,12.882-3.667,14.477-2.581c1.788,1.218,3.15,2.885,3.526,5.272C24.372,11.129,24.747,13.769,23.916,16.375z"/>
	<text transform="matrix(1 0 0 1 41.2695 22.8862)" fill="#FFFFFF" font-family="'OpenSans-Extrabold'" font-size="26.1547">Anhiora</text>
</g>
</svg>
