<?xml version="1.0" encoding="utf-8"?>
<!-- Generator: Adobe Illustrator 16.0.0, SVG Export Plug-In . SVG Version: 6.00 Build 0)  -->
<!DOCTYPE svg PUBLIC "-//W3C//DTD SVG 1.1//EN" "http://www.w3.org/Graphics/SVG/1.1/DTD/svg11.dtd">
<svg version="1.1" id="Слой_1" xmlns="http://www.w3.org/2000/svg" xmlns:xlink="http://www.w3.org/1999/xlink" x="0px" y="0px"
	 width="148.333px" height="27.242px" viewBox="0 0 148.333 27.242" enable-background="new 0 0 148.333 27.242"
	 xml:space="preserve">
<g>
	<path fill-rule="evenodd" clip-rule="evenodd" fill="#FFFFFF" d="M15.859,0.412C9.9-0.73,2.657,4.195,1.316,10.184
		c-0.185,0.827-0.258,2.965-0.258,2.965s1.433,0.272,2.231,0.401c6.011,0.966,10.241,4.757,11.112,10.763
		c0.208,1.43,0.558,2.514,0.558,2.514l2.48-0.44c5.226-1.073,9.774-7.065,9.826-12.54C27.698,7.398,23.512,1.878,15.859,0.412z
		 M23.916,16.375c-0.831,2.607-3.26,4.869-4.784,5.734c-0.779,0.442-1.953,1.109-1.953,1.109s-0.426-1.782-0.906-2.688
		c-2.244-4.231-4.578-7.444-9.156-8.875c-1.103-0.344-2.406-0.688-2.406-0.688s0.684-1.915,1.586-2.99
		c6.419-7.644,12.882-3.667,14.477-2.581c1.788,1.218,3.15,2.885,3.526,5.272C24.372,11.129,24.747,13.769,23.916,16.375z"/>
	<g>
		<path fill="#FFFFFF" d="M54.743,22.886l-0.919-3.499h-6.066l-0.945,3.499H41.27l6.092-18.748h6.73l6.168,18.748H54.743z
			 M52.776,15.25l-0.804-3.065c-0.188-0.681-0.415-1.562-0.684-2.644c-0.268-1.081-0.445-1.856-0.53-2.324
			c-0.077,0.434-0.228,1.149-0.454,2.146s-0.726,2.959-1.5,5.888H52.776z"/>
		<path fill="#FFFFFF" d="M71.115,22.886v-7.893c0-0.962-0.138-1.688-0.415-2.177c-0.276-0.489-0.721-0.734-1.334-0.734
			c-0.843,0-1.452,0.336-1.826,1.009c-0.375,0.673-0.562,1.826-0.562,3.461v6.334h-4.993V8.417h3.768l0.625,1.788h0.294
			c0.425-0.681,1.015-1.192,1.769-1.532s1.62-0.511,2.599-0.511c1.6,0,2.846,0.464,3.735,1.392c0.89,0.928,1.334,2.235,1.334,3.92
			v9.412H71.115z"/>
		<path fill="#FFFFFF" d="M88.611,22.886v-7.893c0-1.941-0.575-2.912-1.724-2.912c-0.817,0-1.419,0.343-1.807,1.028
			c-0.387,0.685-0.581,1.824-0.581,3.416v6.36h-4.993V3.015h4.993v2.823c0,1.277-0.068,2.733-0.204,4.367h0.23
			c0.477-0.749,1.042-1.277,1.698-1.583c0.656-0.306,1.417-0.459,2.286-0.459c1.618,0,2.875,0.466,3.774,1.398
			c0.898,0.932,1.347,2.237,1.347,3.914v9.412H88.611z"/>
		<path fill="#FFFFFF" d="M96.925,4.815c0-0.749,0.208-1.307,0.625-1.673s1.09-0.549,2.018-0.549c0.928,0,1.604,0.188,2.03,0.562
			c0.426,0.375,0.639,0.928,0.639,1.66c0,1.464-0.89,2.197-2.669,2.197C97.806,7.012,96.925,6.28,96.925,4.815z M102.046,22.886
			h-4.994V8.417h4.994V22.886z"/>
		<path fill="#FFFFFF" d="M119.35,15.62c0,2.367-0.636,4.212-1.909,5.536c-1.273,1.324-3.054,1.986-5.345,1.986
			c-2.196,0-3.944-0.677-5.242-2.03c-1.298-1.354-1.948-3.185-1.948-5.492c0-2.358,0.637-4.191,1.909-5.498
			c1.273-1.307,3.059-1.96,5.357-1.96c1.422,0,2.678,0.302,3.768,0.907s1.93,1.471,2.522,2.599
			C119.054,12.795,119.35,14.113,119.35,15.62z M109.977,15.62c0,1.243,0.166,2.19,0.498,2.841c0.332,0.651,0.89,0.977,1.673,0.977
			c0.774,0,1.322-0.326,1.641-0.977c0.319-0.651,0.479-1.598,0.479-2.841c0-1.234-0.162-2.167-0.485-2.797
			c-0.324-0.63-0.877-0.945-1.66-0.945c-0.767,0-1.315,0.313-1.647,0.938S109.977,14.376,109.977,15.62z"/>
		<path fill="#FFFFFF" d="M130.934,8.162c0.434,0,0.847,0.034,1.239,0.102l0.281,0.051l-0.447,4.712
			c-0.409-0.103-0.975-0.153-1.699-0.153c-1.09,0-1.882,0.249-2.375,0.747s-0.741,1.215-0.741,2.152v7.113h-4.993V8.417h3.716
			l0.779,2.312h0.243c0.417-0.767,0.998-1.386,1.743-1.858C129.424,8.398,130.176,8.162,130.934,8.162z"/>
		<path fill="#FFFFFF" d="M143.909,22.886l-0.958-1.916h-0.103c-0.672,0.834-1.358,1.405-2.056,1.711
			c-0.698,0.306-1.601,0.459-2.707,0.459c-1.362,0-2.435-0.409-3.218-1.226c-0.784-0.817-1.175-1.967-1.175-3.448
			c0-1.541,0.537-2.688,1.609-3.441s2.626-1.177,4.661-1.271l2.414-0.077v-0.204c0-1.192-0.588-1.788-1.763-1.788
			c-1.056,0-2.396,0.358-4.022,1.073l-1.443-3.295c1.686-0.868,3.814-1.302,6.385-1.302c1.856,0,3.293,0.459,4.311,1.379
			c1.017,0.92,1.526,2.206,1.526,3.857v9.489H143.909z M140.205,19.617c0.604,0,1.122-0.191,1.552-0.575
			c0.43-0.383,0.645-0.881,0.645-1.494v-1.124l-1.149,0.051c-1.643,0.06-2.465,0.664-2.465,1.813
			C138.788,19.174,139.26,19.617,140.205,19.617z"/>
	</g>
</g>
</svg>
